<svg xmlns="http://www.w3.org/2000/svg" viewBox="0 0 614.56 100"><defs><style>.cls-1{fill:#00f0aa;}</style></defs><title>Logo Bokobo</title><g id="Capa_4" data-name="Capa 4"><path class="cls-1" d="M153,98a48,48,0,1,1,48-48A48.05,48.05,0,0,1,153,98Zm0-86a38,38,0,1,0,38,38A38,38,0,0,0,153,12Z"/><path class="cls-1" d="M234.5,98A23.48,23.48,0,0,1,211,74.5v-49A23.5,23.5,0,0,1,251.12,8.88l.11.11,4.93,5.25s4.13-4.78,4.72-5.37A23.5,23.5,0,0,1,294.24,42l-5.82,6.63,8.75,9.33a23.5,23.5,0,0,1-33.29,33.17l-.11-.11-6.48-6.91-6.17,7A23.43,23.43,0,0,1,234.5,98ZM271,84.1A13.5,13.5,0,0,0,290,65l-.11-.11-15-17L287,35A13.5,13.5,0,0,0,268,16L256.41,28.12,244,15.9a13.5,13.5,0,0,0-23,9.6v49A13.5,13.5,0,0,0,244,84l13-13.83Z"/><path class="cls-1" d="M68,95H25.5A20.52,20.52,0,0,1,5,74.5v-49A20.52,20.52,0,0,1,25.5,5h38A28.5,28.5,0,0,1,89.83,44.42,30,30,0,0,1,68,95ZM25.5,15A10.51,10.51,0,0,0,15,25.5v49A10.51,10.51,0,0,0,25.5,85H68A20,20,0,0,0,80.54,49.43L77.16,46.7,79.39,43A18.5,18.5,0,0,0,63.5,15Z"/><path class="cls-1" d="M565,98a48,48,0,1,1,48-48A48.05,48.05,0,0,1,565,98Zm0-86a38,38,0,1,0,38,38A38,38,0,0,0,565,12Z"/><path class="cls-1" d="M359,98a48,48,0,1,1,48-48A48.05,48.05,0,0,1,359,98Zm0-86a38,38,0,1,0,38,38A38,38,0,0,0,359,12Z"/><path class="cls-1" d="M480,95H437.5A20.52,20.52,0,0,1,417,74.5v-49A20.52,20.52,0,0,1,437.5,5h38a28.5,28.5,0,0,1,26.33,39.42A30,30,0,0,1,480,95ZM437.5,15A10.51,10.51,0,0,0,427,25.5v49A10.51,10.51,0,0,0,437.5,85H480a20,20,0,0,0,12.54-35.57l-3.38-2.73L491.39,43A18.5,18.5,0,0,0,475.5,15Z"/></g></svg>